<?xml version="1.0" standalone="no"?><!DOCTYPE svg PUBLIC "-//W3C//DTD SVG 1.1//EN" "http://www.w3.org/Graphics/SVG/1.1/DTD/svg11.dtd"><svg t="1558168874876" class="icon" style="" viewBox="0 0 1024 1024" version="1.1" xmlns="http://www.w3.org/2000/svg" p-id="2945" xmlns:xlink="http://www.w3.org/1999/xlink" width="200" height="200"><defs><style type="text/css"></style></defs><path d="M512 512m-512 0a512 512 0 1 0 1024 0 512 512 0 1 0-1024 0Z" fill="#d81e06" p-id="2946" data-spm-anchor-id="a313x.7781069.0.i12" class="selected"></path><path d="M905.336471 431.585882L508.988235 564.705882 111.736471 432.489412v-1.807059l391.529411-134.927059 400.564706 134.02353 1.505883 1.807058z" fill="#FFFFFF" p-id="2947"></path><path d="M319.849412 531.275294l187.934117 60.235294 187.934118-61.741176 14.155294 55.41647a24.395294 24.395294 0 0 1-6.625882 15.36 427.369412 427.369412 0 0 1-66.258824 48.188236s-60.235294 32.527059-76.498823 38.249411l-43.670588 14.155295a60.235294 60.235294 0 0 1-31.62353 0s-30.117647-10.24-39.755294-14.155295c0 0-41.863529-19.576471-50.597647-25.298823a563.2 563.2 0 0 1-68.969412-48.188235 93.967059 93.967059 0 0 1-14.45647-14.456471 37.044706 37.044706 0 0 1-6.02353-14.757647zM867.087059 435.2h18.974117v226.785882h-18.974117z" fill="#FFFFFF" p-id="2948"></path></svg>